<?xml version="1.0" encoding="utf-8"?>
<!-- Generator: Adobe Illustrator 17.1.0, SVG Export Plug-In . SVG Version: 6.00 Build 0)  -->
<!DOCTYPE svg PUBLIC "-//W3C//DTD SVG 1.1//EN" "http://www.w3.org/Graphics/SVG/1.1/DTD/svg11.dtd">
<svg version="1.1" id="Layer_1" xmlns="http://www.w3.org/2000/svg" xmlns:xlink="http://www.w3.org/1999/xlink" x="0px" y="0px"
	 viewBox="0 0 100 100" enable-background="new 0 0 100 100" xml:space="preserve">
<rect fill="none" width="100" height="100"/>
<g>
	<path d="M87.3,41.9L14.2,63.4c-1.4,0.4-2.9-0.4-3.3-1.8l0-0.1c-0.4-1.4,0.4-2.9,1.8-3.3l73.1-21.5c1.4-0.4,2.9,0.4,3.3,1.8l0,0.1
		C89.6,39.9,88.8,41.4,87.3,41.9z"/>
	<g>
		<path d="M88.1,28.1H11.9c-1.5,0-2.7-1.2-2.7-2.7v-0.1c0-1.5,1.2-2.7,2.7-2.7h76.2c1.5,0,2.7,1.2,2.7,2.7v0.1
			C90.8,26.9,89.6,28.1,88.1,28.1z"/>
		<path d="M88.1,77.3H11.9c-1.5,0-2.7-1.2-2.7-2.7v-0.1c0-1.5,1.2-2.7,2.7-2.7h76.2c1.5,0,2.7,1.2,2.7,2.7v0.1
			C90.8,76.1,89.6,77.3,88.1,77.3z"/>
	</g>
</g>
<g>
</g>
<g>
</g>
<g>
</g>
<g>
</g>
<g>
</g>
</svg>
